<?xml version="1.0" standalone="no"?>
<!DOCTYPE svg PUBLIC "-//W3C//DTD SVG 20010904//EN"
 "http://www.w3.org/TR/2001/REC-SVG-20010904/DTD/svg10.dtd">
<svg version="1.0" xmlns="http://www.w3.org/2000/svg"
 width="500.000000pt" height="500.000000pt" viewBox="0 0 500.000000 500.000000"
 preserveAspectRatio="xMidYMid meet">

<g transform="translate(0.000000,500.000000) scale(0.100000,-0.100000)"
fill="#c3b59b" stroke="none">
<path d="M105 4895 l-35 -36 0 -2360 0 -2361 34 -34 34 -34 2362 0 2362 0 34
34 34 34 0 2362 0 2362 -34 34 -34 34 -2361 0 -2360 0 -36 -35z m2315 -445 l0
-310 -75 0 -75 0 0 161 c0 161 -5 190 -39 216 -12 9 -88 12 -279 13 l-263 0
-24 -25 c-25 -24 -25 -27 -25 -195 l0 -170 -80 0 -80 0 0 214 0 215 -26 20
c-26 21 -36 21 -519 21 l-492 0 -27 -26 -26 -27 0 -209 0 -209 -75 3 -76 3 -2
308 -2 307 1093 0 1092 0 0 -310z m2348 158 l-3 -153 -1092 -3 -1093 -2 0 155
0 155 1095 0 1096 0 -3 -152z m-3438 -313 l0 -155 -390 0 -390 0 0 155 0 155
390 0 390 0 0 -155z m780 -40 l0 -115 -155 0 -155 0 0 115 0 115 155 0 155 0
0 -115z m1170 -35 l0 -80 -350 0 -350 0 0 80 0 80 350 0 350 0 0 -80z m628 -2
l3 -78 -236 0 -235 0 0 80 0 80 233 -2 232 -3 3 -77z m860 0 l3 -78 -356 0
-355 0 0 73 c0 41 3 77 7 80 4 4 162 6 352 5 l346 -3 3 -77z m-2348 -548 l0
-310 -74 0 -75 0 -3 171 -3 171 -28 24 -28 24 -258 0 c-240 0 -261 -1 -282
-19 -23 -19 -24 -24 -27 -195 l-3 -176 -80 0 -79 0 0 214 0 215 -26 20 c-26
21 -36 21 -510 21 -333 0 -491 -3 -507 -11 -42 -19 -47 -47 -47 -259 l0 -200
-77 0 -78 0 0 310 0 310 1093 0 1092 0 0 -310z m860 256 l0 -55 -257 -146
c-142 -81 -264 -154 -270 -163 -9 -10 -13 -54 -13 -128 0 -173 -115 -154 937
-154 l884 0 24 25 c23 22 25 31 25 127 0 75 -4 109 -15 124 -8 12 -131 88
-275 170 l-260 148 0 53 0 53 355 0 355 0 0 -1325 0 -1325 -1095 0 -1095 0 0
1325 0 1325 350 0 350 0 0 -54z m630 1 l0 -53 -119 -67 -118 -68 -117 66 -116
66 0 55 0 54 235 0 235 0 0 -53z m-319 -321 c129 -74 235 -142 237 -150 3 -14
-44 -16 -468 -16 -422 0 -471 2 -468 16 2 8 107 75 233 148 127 74 230 134
231 135 0 1 106 -59 235 -133z m664 -23 c117 -66 191 -115 193 -125 3 -17 -13
-18 -232 -18 l-235 0 5 29 c12 57 -11 96 -82 137 -35 21 -64 41 -64 44 0 3 33
24 73 46 l72 42 40 -24 c22 -12 125 -71 230 -131z m-2925 -68 l0 -155 -390 0
-390 0 0 155 0 155 390 0 390 0 0 -155z m780 -40 l0 -115 -155 0 -155 0 0 115
0 115 155 0 155 0 0 -115z m310 -745 l0 -470 -118 0 -117 0 0 113 c0 104 -2
116 -27 161 -28 48 -28 48 -9 75 32 46 44 99 39 185 -7 117 -46 183 -138 232
-33 18 -71 19 -720 19 -684 0 -685 0 -726 -22 -54 -29 -110 -93 -123 -140 -6
-21 -11 -75 -11 -119 0 -71 4 -89 29 -136 28 -54 28 -56 10 -79 -30 -40 -42
-103 -37 -199 l4 -91 -118 3 -118 3 -3 468 -2 467 1093 0 1092 0 0 -470z
m-415 135 c22 -21 25 -33 25 -91 0 -56 -4 -72 -22 -91 l-21 -23 -659 0 c-645
0 -658 0 -678 20 -21 21 -21 23 -22 109 -1 47 3 58 26 78 l27 23 650 0 650 0
24 -25z m0 -390 c22 -21 25 -33 25 -92 -1 -74 -11 -96 -54 -113 -18 -6 -242
-10 -647 -10 -680 0 -681 0 -695 57 -4 15 -7 52 -7 82 0 47 4 58 27 78 l27 23
650 0 650 0 24 -25z m415 -755 l0 -390 -470 0 -470 0 0 258 c0 239 -1 259 -20
290 -11 18 -34 41 -52 52 -32 19 -52 20 -469 20 -436 0 -436 0 -469 -22 -75
-51 -75 -50 -78 -339 l-3 -259 -77 0 -77 0 2 387 c2 214 3 389 3 391 0 1 490
2 1090 2 l1090 0 0 -390z m-1090 0 l0 -80 -390 0 -390 0 0 80 0 80 390 0 390
0 0 -80z m0 -315 l0 -75 -390 0 -390 0 0 75 0 75 390 0 390 0 0 -75z m0 -705
l0 -470 -545 2 -545 3 0 463 c0 254 0 464 0 467 0 3 245 5 545 5 l545 0 0
-470z m1090 0 l0 -470 -467 2 -468 3 -3 468 -2 467 470 0 470 0 0 -470z m2348
3 l-3 -468 -1092 -3 -1093 -2 0 470 0 470 1095 0 1095 0 -2 -467z"/>
<path d="M470 935 l0 -75 275 0 275 0 0 75 0 75 -275 0 -275 0 0 -75z"/>
<path d="M1640 935 l0 -75 275 0 275 0 0 75 0 75 -275 0 -275 0 0 -75z"/>
<path d="M3360 935 l0 -75 313 2 312 3 3 73 3 72 -316 0 -315 0 0 -75z"/>
</g>
</svg>
