<?xml version="1.0" standalone="no"?>
<!DOCTYPE svg PUBLIC "-//W3C//DTD SVG 20010904//EN"
 "http://www.w3.org/TR/2001/REC-SVG-20010904/DTD/svg10.dtd">
<svg version="1.0" xmlns="http://www.w3.org/2000/svg"
 width="500.000000pt" height="500.000000pt" viewBox="0 0 500.000000 500.000000"
 preserveAspectRatio="xMidYMid meet">

<g transform="translate(0.000000,500.000000) scale(0.100000,-0.100000)"
fill="#c3b59b" stroke="none">
<path d="M904 4679 c-11 -6 -28 -23 -37 -39 -16 -26 -17 -175 -17 -1985 0
-2164 -5 -2002 65 -2025 19 -6 67 -10 107 -9 l73 2 3 -136 c3 -133 3 -136 29
-156 26 -21 29 -21 1377 -21 1046 1 1355 3 1367 13 32 25 39 56 39 179 l0 123
61 -3 c84 -5 127 5 155 35 l24 26 0 1971 0 1971 -24 30 -24 30 -1589 2 c-1057
1 -1595 -2 -1609 -8z m3086 -539 l0 -390 -1485 0 -1485 0 0 390 0 390 1485 0
1485 0 0 -390z m0 -1955 l0 -1405 -1485 0 -1485 0 0 1405 0 1405 1485 0 1485
0 0 -1405z m-240 -1640 l0 -75 -1250 0 -1250 0 0 73 c0 41 2 76 4 78 2 2 565
3 1250 1 l1246 -2 0 -75z"/>
<path d="M1199 4351 c-23 -19 -24 -24 -27 -205 l-3 -186 25 -25 25 -25 581 0
c567 0 580 0 600 20 19 19 20 33 20 210 0 177 -1 191 -20 210 -20 20 -33 20
-599 20 -555 0 -580 -1 -602 -19z m1069 -213 l3 -78 -471 0 -470 0 0 80 0 80
468 -2 467 -3 3 -77z"/>
<path d="M2685 4285 c-137 -48 -139 -235 -3 -290 99 -39 208 37 208 146 0 104
-106 179 -205 144z"/>
<path d="M3157 4286 c-71 -26 -107 -76 -107 -149 0 -59 32 -106 93 -136 55
-27 95 -24 148 12 47 31 71 81 66 138 -9 102 -107 168 -200 135z"/>
<path d="M3627 4286 c-70 -26 -107 -76 -107 -146 0 -113 111 -187 213 -142
114 50 130 201 28 267 -48 31 -88 37 -134 21z"/>
<path d="M2366 3430 c-339 -39 -656 -218 -859 -488 -204 -272 -287 -587 -243
-922 82 -621 608 -1080 1236 -1080 488 0 924 275 1130 713 58 124 85 213 105
343 101 668 -342 1293 -1002 1418 -104 19 -270 27 -367 16z m393 -181 c387
-98 680 -383 798 -774 26 -85 27 -101 27 -290 0 -190 -1 -205 -27 -290 -61
-198 -189 -404 -324 -522 -374 -324 -876 -372 -1296 -121 -268 160 -453 428
-512 743 -25 131 -16 346 19 474 86 309 312 579 591 706 97 45 223 83 310 95
110 14 316 4 414 -21z"/>
<path d="M2391 3040 c-203 -29 -406 -137 -534 -287 -145 -169 -212 -349 -211
-568 0 -244 90 -454 266 -621 163 -155 363 -234 591 -234 242 1 449 91 619
269 126 131 196 274 229 466 15 88 6 246 -20 345 -42 158 -148 324 -275 431
-86 73 -259 161 -362 183 -93 20 -222 27 -303 16z m294 -175 c135 -37 275
-127 359 -232 90 -112 155 -280 156 -400 l0 -42 -41 14 c-23 8 -67 30 -98 49
-100 61 -156 78 -272 84 -132 6 -184 -8 -329 -86 l-105 -57 -115 0 -115 0
-115 62 c-63 34 -132 65 -152 68 -28 5 -38 12 -38 26 0 37 48 148 92 215 110
164 256 264 453 310 75 17 236 11 320 -11z m140 -685 c55 -8 90 -22 165 -64
52 -30 118 -60 146 -66 l51 -13 -8 -38 c-36 -158 -190 -350 -347 -432 -124
-65 -279 -95 -412 -78 -171 22 -291 82 -416 207 -66 65 -90 98 -128 175 -46
93 -75 199 -76 272 0 20 2 37 4 37 16 0 85 -31 148 -68 189 -109 381 -109 573
-1 82 46 125 61 195 72 14 3 27 5 30 5 3 1 36 -3 75 -8z"/>
</g>
</svg>
