<?xml version="1.0" standalone="no"?>
<!DOCTYPE svg PUBLIC "-//W3C//DTD SVG 20010904//EN"
 "http://www.w3.org/TR/2001/REC-SVG-20010904/DTD/svg10.dtd">
<svg version="1.0" xmlns="http://www.w3.org/2000/svg"
 width="500.000000pt" height="500.000000pt" viewBox="0 0 500.000000 500.000000"
 preserveAspectRatio="xMidYMid meet">

<g transform="translate(0.000000,500.000000) scale(0.100000,-0.100000)"
fill="#c3b59b" stroke="none">
<path d="M4495 4946 c-16 -8 -406 -390 -865 -850 -459 -460 -839 -836 -844
-836 -6 0 -91 80 -190 179 -151 148 -192 183 -246 209 -84 40 -137 52 -230 52
-165 0 -253 -42 -410 -195 -125 -122 -406 -366 -638 -553 -388 -313 -727 -542
-907 -611 -119 -46 -126 -50 -141 -86 -9 -21 -12 -46 -7 -63 4 -18 304 -325
917 -938 707 -707 918 -912 941 -917 32 -6 83 11 102 34 6 8 21 43 33 79 76
226 396 682 861 1226 84 99 210 238 280 310 135 139 177 200 209 303 24 77 26
202 5 284 -29 112 -58 153 -246 343 -99 99 -179 184 -179 190 0 5 380 389 845
854 590 590 846 853 850 872 8 37 -13 77 -54 105 -39 26 -45 27 -86 9z m-2239
-1486 c49 -24 126 -97 461 -432 448 -449 454 -457 456 -581 2 -96 -24 -157
-100 -238 l-64 -68 -590 589 c-324 324 -589 593 -589 598 0 19 112 114 162
137 80 37 184 35 264 -5z m13 -874 c546 -546 593 -596 580 -613 -8 -10 -70
-83 -138 -163 -360 -422 -645 -806 -796 -1073 l-60 -106 -237 237 -238 237
194 195 c196 197 215 222 202 276 -12 47 -50 74 -102 74 l-47 0 -199 -197
-199 -197 -146 146 -147 147 87 89 c80 83 87 92 87 130 0 72 -70 127 -131 103
-13 -5 -61 -46 -107 -92 l-84 -82 -238 238 -239 238 105 59 c281 156 750 511
1218 920 17 15 33 27 36 28 3 0 272 -267 599 -594z"/>
<path d="M3763 1442 c-112 -40 -177 -108 -210 -221 -20 -71 -12 -138 27 -218
92 -186 346 -226 495 -78 90 91 116 233 64 345 -37 79 -72 115 -144 151 -81
40 -159 47 -232 21z m159 -221 c28 -25 33 -36 33 -75 0 -58 -33 -95 -92 -103
-35 -5 -45 -1 -74 25 -29 26 -34 37 -34 77 0 40 5 51 33 76 22 20 43 29 67 29
24 0 45 -9 67 -29z"/>
<path d="M3017 820 c-90 -23 -201 -109 -251 -194 -122 -209 -40 -474 182 -583
73 -36 80 -38 176 -38 93 0 107 3 168 32 167 79 256 226 246 407 -8 149 -95
279 -233 347 -56 28 -77 32 -158 35 -50 2 -109 -1 -130 -6z m201 -219 c139
-71 152 -266 24 -355 -60 -42 -148 -48 -212 -14 -149 80 -146 292 5 371 43 23
137 22 183 -2z"/>
<path d="M4213 400 c-39 -23 -53 -48 -53 -94 0 -52 34 -87 93 -93 34 -4 54 -1
73 11 68 45 61 146 -11 181 -43 20 -63 19 -102 -5z"/>
</g>
</svg>
