<?xml version="1.0" standalone="no"?>
<!DOCTYPE svg PUBLIC "-//W3C//DTD SVG 20010904//EN"
 "http://www.w3.org/TR/2001/REC-SVG-20010904/DTD/svg10.dtd">
<svg version="1.0" xmlns="http://www.w3.org/2000/svg"
 width="500.000000pt" height="500.000000pt" viewBox="0 0 500.000000 500.000000"
 preserveAspectRatio="xMidYMid meet">

<g transform="translate(0.000000,500.000000) scale(0.100000,-0.100000)"
fill="#c3b59b" stroke="none">
<path d="M1730 4431 c-49 -10 -79 -27 -126 -73 -40 -38 -42 -39 -85 -29 -105
25 -206 -2 -262 -69 l-28 -33 -130 26 c-179 36 -184 34 -213 -107 -9 -44 -17
-81 -19 -82 -1 -1 -92 16 -202 37 -110 21 -208 36 -218 33 -27 -9 -57 -45 -57
-70 0 -13 10 -35 23 -49 19 -23 45 -30 221 -65 109 -22 200 -41 202 -42 1 -2
-4 -30 -12 -63 -20 -87 -18 -138 6 -160 13 -11 68 -28 152 -44 l131 -26 13
-44 c23 -80 106 -144 205 -159 50 -7 53 -9 66 -47 18 -54 66 -111 115 -136 22
-11 86 -29 142 -40 55 -10 111 -21 123 -24 22 -5 22 -7 25 -268 l3 -263 33
-66 c52 -105 137 -176 260 -214 9 -2 12 -60 12 -244 l0 -240 -65 0 c-72 0
-166 -30 -229 -72 -41 -28 -108 -104 -131 -148 -29 -56 -47 -154 -41 -220 5
-53 57 -327 127 -670 23 -112 92 -188 192 -210 37 -8 254 -10 727 -8 636 3
677 4 710 22 45 24 98 73 117 110 8 16 43 169 77 340 l62 311 262 0 263 0 19
-25 c25 -32 25 -71 1 -101 -18 -22 -28 -24 -153 -29 -123 -5 -136 -8 -181 -34
-159 -94 -149 -320 17 -409 40 -21 51 -22 364 -22 l324 0 19 24 c24 30 24 72
0 102 l-19 24 -308 3 c-299 3 -309 4 -331 24 -26 25 -31 74 -9 104 13 16 31
20 143 25 107 5 138 10 177 28 94 46 147 157 125 262 -14 66 -92 151 -154 168
-24 6 -141 11 -291 11 l-252 0 -6 53 c-23 178 -184 321 -380 336 l-81 6 -3
503 -2 504 27 -6 c16 -3 145 -29 288 -57 298 -58 335 -59 447 -7 111 51 191
153 217 278 112 537 114 558 70 676 -30 81 -131 182 -211 212 -31 12 -297 69
-590 127 -293 59 -791 158 -1106 221 -315 63 -573 113 -575 113 -1 -1 -18 -4
-37 -8z m124 -167 c19 -7 -14 -154 -34 -154 -20 1 -131 27 -136 33 -13 12 18
94 42 115 23 20 34 23 72 17 24 -4 50 -9 56 -11z m809 -160 c803 -159 1031
-206 1035 -209 2 -2 -6 -50 -17 -107 -11 -56 -50 -258 -87 -448 -37 -190 -71
-349 -75 -354 -6 -7 -316 52 -1353 259 -175 35 -321 66 -324 69 -5 6 165 894
175 908 2 5 6 8 9 8 3 0 289 -57 637 -126z m-1150 70 c10 -3 16 -11 14 -18 -3
-6 -31 -144 -63 -305 l-58 -293 -40 7 c-50 7 -84 29 -96 59 -8 23 55 371 89
486 22 76 59 92 154 64z m-327 -97 c4 -4 -54 -298 -60 -304 -4 -5 -136 23
-143 30 -5 6 44 284 53 298 4 6 143 -16 150 -24z m557 -108 c31 -7 57 -16 57
-22 0 -5 -10 -57 -22 -114 -14 -66 -26 -103 -34 -103 -13 0 -110 18 -130 25
-10 3 -1 59 31 203 6 25 18 27 98 11z m2252 -141 c72 -39 125 -122 125 -199 0
-74 -94 -528 -120 -578 -24 -48 -78 -95 -126 -111 -36 -12 -171 -9 -192 4 -6
3 7 87 28 193 21 104 61 305 90 448 28 143 53 265 55 272 5 14 93 -4 140 -29z
m-2343 -239 c29 -6 58 -12 64 -14 8 -2 5 -36 -11 -115 -12 -61 -24 -113 -27
-115 -11 -11 -96 20 -116 43 -25 27 -25 46 0 165 11 52 11 52 90 36z m401
-479 l57 -11 0 -295 0 -295 -27 15 c-38 20 -99 85 -114 121 -13 32 -26 442
-15 471 3 9 13 13 23 10 10 -2 44 -10 76 -16z m971 -194 l26 -6 -2 -518 -3
-517 -387 -3 -388 -2 0 598 0 599 364 -72 c201 -40 376 -75 390 -79z m314
-1211 c84 -25 159 -107 177 -192 l7 -33 -861 0 c-845 0 -861 0 -861 19 0 52
55 140 107 172 76 47 82 48 749 48 540 1 638 -1 682 -14z m-1068 -442 c0 -86
23 -136 84 -190 33 -29 62 -45 97 -52 65 -14 344 -14 409 0 109 23 179 112
188 240 l5 69 224 0 c209 0 224 -1 219 -17 -3 -10 -28 -139 -57 -287 -44 -224
-56 -273 -77 -297 l-24 -29 -677 0 c-746 0 -709 -3 -730 63 -9 28 -111 543
-111 560 0 4 101 7 225 7 l225 0 0 -67z m620 12 c0 -46 -4 -60 -25 -80 -24
-25 -26 -25 -207 -25 -128 1 -188 4 -199 13 -26 20 -39 53 -39 101 l0 46 235
0 235 0 0 -55z"/>
</g>
</svg>
