<?xml version="1.0" standalone="no"?>
<!DOCTYPE svg PUBLIC "-//W3C//DTD SVG 20010904//EN"
 "http://www.w3.org/TR/2001/REC-SVG-20010904/DTD/svg10.dtd">
<svg version="1.0" xmlns="http://www.w3.org/2000/svg"
 width="500.000000pt" height="500.000000pt" viewBox="0 0 500.000000 500.000000"
 preserveAspectRatio="xMidYMid meet">

<g transform="translate(0.000000,500.000000) scale(0.100000,-0.100000)"
fill="#c3b59b" stroke="none">
<path d="M2484 4882 c-67 -32 -166 -77 -220 -101 -129 -57 -248 -111 -594
-266 -157 -70 -323 -144 -370 -165 -47 -20 -130 -57 -185 -82 -279 -127 -774
-349 -978 -438 -155 -68 -137 105 -137 -1331 0 -927 3 -1245 12 -1264 15 -33
-4 -24 813 -390 83 -37 213 -96 290 -130 77 -35 257 -116 400 -180 143 -64
328 -147 410 -185 83 -37 218 -98 300 -135 83 -37 198 -89 257 -116 59 -27
113 -49 120 -49 12 0 782 375 1653 805 187 92 431 212 543 266 l202 98 0 1251
c0 1101 -2 1255 -15 1280 -13 24 -52 48 -208 124 -209 102 -694 341 -1586 782
-315 156 -576 284 -580 283 -3 0 -60 -26 -127 -57z m377 -296 c140 -68 522
-256 849 -418 327 -161 673 -332 767 -378 95 -47 173 -87 173 -90 0 -6 -874
-433 -895 -438 -17 -4 -89 29 -570 258 -315 151 -738 351 -1020 485 -311 147
-521 248 -529 255 -8 8 13 19 174 90 227 100 778 348 796 359 1 1 115 -55 255
-123z m-1104 -617 c208 -100 414 -198 458 -219 44 -21 125 -59 180 -85 55 -26
127 -60 160 -75 33 -15 227 -107 430 -205 204 -98 403 -193 444 -212 l74 -35
-39 -22 c-21 -12 -82 -43 -134 -68 -52 -25 -238 -116 -412 -202 l-317 -155
-168 75 c-303 136 -446 201 -608 274 -277 125 -447 201 -545 245 -52 23 -162
73 -245 110 -82 37 -197 89 -255 114 -58 26 -174 78 -258 116 -83 38 -152 72
-152 76 0 4 37 23 83 42 45 19 219 97 387 172 168 76 343 154 390 175 47 20
95 42 105 48 11 6 25 12 32 12 6 0 182 -82 390 -181z m-1386 -505 c63 -29 156
-71 205 -93 183 -81 342 -152 739 -331 174 -79 395 -178 545 -245 52 -24 172
-77 265 -120 94 -42 216 -97 273 -122 l102 -45 0 -1094 0 -1094 -52 24 c-29
13 -118 53 -198 89 -80 36 -262 118 -405 182 -143 65 -298 134 -345 155 -47
21 -202 90 -345 155 -143 64 -339 152 -435 195 -96 44 -249 112 -340 153
l-165 75 -3 1092 -2 1091 22 -7 c13 -3 75 -30 139 -60z m4419 -1025 l0 -1090
-357 -176 c-671 -329 -1358 -665 -1533 -750 -96 -47 -178 -87 -182 -90 -5 -2
-8 487 -8 1087 l0 1091 358 176 c737 362 848 416 1277 627 242 119 441 216
443 216 1 0 2 -491 2 -1091z"/>
<path d="M540 3063 c-8 -3 -27 -17 -42 -31 -33 -31 -38 -93 -10 -129 14 -19
285 -154 555 -277 76 -34 111 -34 147 3 39 38 47 75 26 118 -14 30 -33 42
-139 92 -511 243 -498 238 -537 224z"/>
<path d="M534 2646 c-17 -8 -39 -24 -48 -37 -21 -30 -21 -88 0 -117 9 -14 82
-55 171 -98 86 -41 157 -74 158 -74 2 0 63 -29 137 -65 79 -39 146 -65 165
-65 53 0 83 17 99 56 18 43 11 84 -19 112 -17 16 -380 195 -562 277 -51 23
-69 25 -101 11z"/>
</g>
</svg>
