<?xml version="1.0" standalone="no"?>
<!DOCTYPE svg PUBLIC "-//W3C//DTD SVG 20010904//EN"
 "http://www.w3.org/TR/2001/REC-SVG-20010904/DTD/svg10.dtd">
<svg version="1.0" xmlns="http://www.w3.org/2000/svg"
 width="500.000000pt" height="500.000000pt" viewBox="0 0 500.000000 500.000000"
 preserveAspectRatio="xMidYMid meet">

<g transform="translate(0.000000,500.000000) scale(0.100000,-0.100000)"
fill="#c3b59b" stroke="none">
<path d="M2300 4711 c-91 -27 -430 -124 -755 -216 -1303 -370 -1461 -416
-1488 -427 -61 -24 -57 116 -57 -2037 l0 -1969 31 -31 31 -31 250 0 250 0 29
29 29 29 0 1531 0 1531 1875 0 1875 0 2 -1531 3 -1531 33 -29 32 -29 246 0
246 0 34 34 34 34 0 1972 0 1972 -32 32 c-25 24 -54 37 -118 55 -47 12 -161
44 -255 71 -254 72 -534 152 -775 221 -421 119 -903 256 -1119 319 -96 27
-188 50 -205 49 -17 0 -105 -22 -196 -48z m389 -215 c102 -29 467 -133 811
-231 344 -97 684 -194 755 -215 72 -20 221 -63 333 -95 l202 -58 0 -1844 0
-1843 -105 0 -105 0 0 1531 0 1531 -29 29 -29 29 -2022 0 -2022 0 -29 -29 -29
-29 0 -1531 0 -1531 -105 0 -105 0 0 1843 0 1844 193 56 c105 31 361 104 567
162 206 58 461 131 565 161 105 30 361 103 570 163 209 60 384 110 389 110 4
1 92 -23 195 -53z"/>
<path d="M1115 3739 c-52 -30 -73 -109 -40 -155 29 -42 54 -45 414 -42 l343 3
29 33 c39 44 39 90 0 134 l-29 33 -349 2 c-242 2 -354 -1 -368 -8z"/>
<path d="M2144 3740 c-65 -26 -83 -109 -35 -162 l29 -33 346 -3 c372 -3 390
-1 417 49 27 51 4 124 -47 147 -30 14 -677 16 -710 2z"/>
<path d="M3160 3737 c-14 -7 -34 -28 -44 -48 -22 -41 -17 -75 18 -116 l24 -28
346 -3 c381 -3 390 -2 421 58 19 37 19 53 0 90 -30 58 -41 60 -407 60 -248 0
-339 -4 -358 -13z"/>
<path d="M2132 2690 c-18 -11 -37 -32 -42 -46 -6 -16 -10 -326 -10 -815 l0
-789 -376 0 c-390 0 -402 -1 -436 -44 -16 -19 -18 -60 -18 -478 l0 -456 31
-31 31 -31 1287 0 c1266 0 1289 0 1313 20 14 10 30 32 37 47 8 21 11 255 9
885 l-3 858 -28 27 -27 28 -388 5 -387 5 -2 380 c-2 263 -6 387 -14 402 -27
51 -43 53 -511 53 -415 0 -434 -1 -466 -20z m783 -505 l0 -310 -312 -3 -313
-2 0 315 0 315 313 -2 312 -3 0 -310z m833 -832 l2 -313 -315 0 -315 0 0 308
c0 170 3 312 7 315 4 4 144 6 312 5 l306 -3 3 -312z m-835 0 l-2 -308 -311 -3
-310 -2 0 310 0 310 313 0 312 0 -2 -307z m-833 -833 l0 -310 -310 0 -310 0 0
310 0 310 310 0 310 0 0 -310z m835 0 l0 -310 -312 0 -313 0 0 310 0 310 313
0 312 0 0 -310z m835 0 l0 -310 -315 0 -315 0 0 310 0 310 315 0 315 0 0 -310z"/>
</g>
</svg>
