<?xml version="1.0" standalone="no"?>
<!DOCTYPE svg PUBLIC "-//W3C//DTD SVG 20010904//EN"
 "http://www.w3.org/TR/2001/REC-SVG-20010904/DTD/svg10.dtd">
<svg version="1.0" xmlns="http://www.w3.org/2000/svg"
 width="500.000000pt" height="500.000000pt" viewBox="0 0 500.000000 500.000000"
 preserveAspectRatio="xMidYMid meet">

<g transform="translate(0.000000,500.000000) scale(0.100000,-0.100000)"
fill="#c3b59b" stroke="none">
<path d="M1214 4680 c-12 -4 -31 -21 -43 -36 l-21 -27 0 -1493 0 -1494 -122 0
c-152 0 -240 -18 -343 -69 -233 -116 -369 -333 -369 -591 0 -182 60 -326 189
-456 89 -89 151 -129 270 -171 l80 -28 1640 0 1640 0 75 23 c112 35 196 86
281 171 83 83 134 165 171 276 l23 70 3 1873 c2 1692 1 1875 -13 1903 -33 63
77 59 -1762 58 -923 0 -1688 -4 -1699 -9z m3266 -1716 l0 -1516 -42 37 c-59
50 -189 113 -273 130 -59 12 -276 15 -1442 15 l-1373 0 0 1425 0 1425 1565 0
1565 0 0 -1516z m-954 -1566 c-58 -80 -92 -141 -118 -212 -73 -197 -35 -439
95 -609 21 -26 37 -49 37 -52 0 -3 -602 -4 -1338 -3 l-1337 3 -78 37 c-285
136 -353 487 -140 718 54 59 142 113 209 129 22 5 605 9 1363 10 l1323 1 -16
-22z m687 -16 c123 -57 219 -171 252 -297 41 -158 -2 -312 -120 -430 -145
-146 -356 -176 -537 -78 -69 37 -153 130 -190 209 -26 56 -32 82 -36 163 -3
80 -1 107 17 159 49 143 145 241 288 292 48 17 76 20 159 17 88 -3 109 -8 167
-35z"/>
<path d="M4005 1073 c-30 -7 -72 -51 -78 -81 -19 -97 104 -162 174 -93 71 71
2 196 -96 174z"/>
</g>
</svg>
