<?xml version="1.0" standalone="no"?>
<!DOCTYPE svg PUBLIC "-//W3C//DTD SVG 20010904//EN"
 "http://www.w3.org/TR/2001/REC-SVG-20010904/DTD/svg10.dtd">
<svg version="1.0" xmlns="http://www.w3.org/2000/svg"
 width="500.000000pt" height="500.000000pt" viewBox="0 0 500.000000 500.000000"
 preserveAspectRatio="xMidYMid meet">

<g transform="translate(0.000000,500.000000) scale(0.100000,-0.100000)"
fill="#c3b59b" stroke="none">
<path d="M34 4966 l-34 -34 0 -2432 0 -2432 34 -34 34 -34 2432 0 2432 0 34
34 34 34 0 2432 0 2432 -34 34 -34 34 -2432 0 -2432 0 -34 -34z m589 -1318
l-3 -1143 -205 -3 -205 -2 0 1145 0 1145 208 0 207 0 -2 -1142z m837 -3 l0
-1145 -315 0 -315 0 0 1145 0 1145 315 0 315 0 0 -1145z m830 0 l0 -1145 -310
0 -310 0 0 1145 0 1145 310 0 310 0 0 -1145z m2500 835 l0 -310 -1145 0 -1145
0 0 310 0 310 1145 0 1145 0 0 -310z m0 -835 l0 -315 -1145 0 -1145 0 0 315 0
315 1145 0 1145 0 0 -315z m0 -835 l0 -310 -1145 0 -1145 0 0 310 0 310 1145
0 1145 0 0 -310z m-2500 -830 l0 -310 -1040 0 -1040 0 0 310 0 310 1040 0
1040 0 0 -310z m835 -730 l0 -1040 -312 0 -313 0 0 1040 0 1040 313 0 312 0 0
-1040z m835 0 l0 -1040 -315 0 -315 0 0 1040 0 1040 315 0 315 0 0 -1040z
m830 0 l0 -1040 -310 0 -310 0 0 1040 0 1040 310 0 310 0 0 -1040z m-2500
-105 l0 -315 -1040 0 -1040 0 0 315 0 315 1040 0 1040 0 0 -315z m0 -730 l0
-205 -1040 0 -1040 0 0 205 0 205 1040 0 1040 0 0 -205z"/>
</g>
</svg>
