<?xml version="1.0" standalone="no"?>
<!DOCTYPE svg PUBLIC "-//W3C//DTD SVG 20010904//EN"
 "http://www.w3.org/TR/2001/REC-SVG-20010904/DTD/svg10.dtd">
<svg version="1.0" xmlns="http://www.w3.org/2000/svg"
 width="500.000000pt" height="500.000000pt" viewBox="0 0 500.000000 500.000000"
 preserveAspectRatio="xMidYMid meet">

<g transform="translate(0.000000,500.000000) scale(0.100000,-0.100000)"
fill="#c3b59b" stroke="none">
<path d="M1802 4988 c-12 -6 -37 -34 -56 -62 -19 -28 -61 -88 -93 -133 -32
-46 -78 -112 -103 -148 l-45 -65 -300 0 c-333 0 -325 1 -360 -68 -15 -31 -15
-36 0 -68 33 -70 -110 -64 1650 -64 l1591 0 23 21 c49 46 47 117 -6 159 -24
19 -40 20 -309 20 l-283 0 -58 83 c-128 182 -144 205 -188 270 l-45 67 -698
-1 c-480 0 -704 -4 -720 -11z m1377 -298 c39 -54 71 -102 71 -105 0 -3 -335
-5 -745 -5 l-746 0 72 105 73 105 602 0 602 0 71 -100z"/>
<path d="M1102 4150 c-54 -33 -56 -51 -33 -280 194 -1914 259 -2525 272 -2553
15 -34 71 -60 109 -52 44 10 80 58 80 108 0 22 -11 149 -25 281 -14 133 -54
529 -90 881 -36 352 -83 813 -105 1025 -22 212 -40 388 -40 393 0 4 558 7
1240 7 1174 0 1240 -1 1240 -17 0 -17 -53 -1039 -149 -2857 l-40 -738 -28 -47
c-19 -31 -43 -53 -73 -68 l-44 -23 -628 0 c-429 0 -635 -3 -651 -11 -30 -13
-57 -59 -57 -94 0 -35 27 -81 57 -94 16 -8 223 -11 657 -11 552 0 639 2 687
16 138 41 249 155 278 286 9 38 54 854 166 2993 46 885 46 799 7 838 l-32 32
-1383 3 c-1367 2 -1382 2 -1415 -18z"/>
<path d="M1415 1073 c-207 -28 -397 -199 -445 -403 -17 -70 -17 -189 -1 -260
55 -233 284 -410 530 -410 132 0 272 60 372 161 212 212 212 548 0 758 -122
121 -286 177 -456 154z m216 -235 c65 -30 122 -85 157 -153 24 -44 27 -62 27
-145 0 -84 -3 -101 -27 -145 -32 -61 -97 -125 -158 -156 -67 -33 -177 -38
-252 -9 -175 66 -264 276 -187 441 47 99 122 163 224 190 55 15 158 4 216 -23z"/>
</g>
</svg>
