<?xml version="1.0" standalone="no"?>
<!DOCTYPE svg PUBLIC "-//W3C//DTD SVG 20010904//EN"
 "http://www.w3.org/TR/2001/REC-SVG-20010904/DTD/svg10.dtd">
<svg version="1.0" xmlns="http://www.w3.org/2000/svg"
 width="500.000000pt" height="500.000000pt" viewBox="0 0 500.000000 500.000000"
 preserveAspectRatio="xMidYMid meet">

<g transform="translate(0.000000,500.000000) scale(0.100000,-0.100000)"
fill="#c3b59b" stroke="none">
<path d="M2410 4793 c-379 -26 -702 -134 -1000 -333 -153 -102 -359 -304 -462
-450 -175 -249 -276 -517 -313 -835 -22 -190 -22 -1385 0 -1565 29 -229 77
-394 170 -581 249 -502 726 -857 1307 -973 273 -55 514 -55 784 0 724 147
1288 675 1438 1348 44 195 48 289 43 1071 -5 766 -4 759 -51 958 -27 110 -83
254 -147 377 -255 484 -730 832 -1289 944 -112 22 -361 49 -414 44 -12 -1 -41
-3 -66 -5z m318 -224 c633 -71 1188 -519 1372 -1108 49 -156 64 -257 64 -441
0 -232 -31 -385 -120 -593 -172 -401 -560 -747 -995 -885 -207 -66 -280 -77
-544 -77 -264 0 -354 12 -550 77 -129 42 -354 156 -465 235 -331 237 -564 604
-630 991 -112 650 222 1300 830 1616 333 173 646 229 1038 185z m1263 -2663
c-232 -419 -646 -713 -1151 -817 -101 -21 -142 -24 -340 -24 -206 1 -236 3
-351 27 -492 106 -888 386 -1124 796 -26 46 -45 85 -43 88 3 2 13 -8 23 -23
11 -15 64 -74 119 -131 275 -283 623 -468 1021 -543 157 -30 458 -37 620 -15
369 51 703 198 987 436 91 76 205 193 252 259 36 51 30 25 -13 -53z m-2911
-444 c235 -269 636 -494 1017 -571 224 -45 518 -52 725 -17 474 81 874 310
1181 676 l38 45 -37 -75 c-91 -187 -272 -397 -464 -541 -119 -90 -334 -202
-475 -248 -49 -17 -148 -42 -220 -57 -116 -24 -152 -27 -335 -28 -231 0 -328
13 -515 69 -286 87 -512 221 -715 425 -58 58 -130 141 -162 185 -50 71 -158
259 -158 274 0 3 13 -10 28 -29 15 -19 56 -68 92 -108z m74 -487 c150 -149
268 -233 461 -330 384 -193 796 -255 1214 -184 316 53 594 171 843 356 111 83
288 253 333 321 43 66 42 41 -3 -41 -249 -462 -694 -770 -1232 -853 -129 -20
-382 -22 -505 -5 -547 77 -1027 403 -1260 856 l-47 90 38 -45 c20 -25 92 -99
158 -165z"/>
<path d="M2535 3953 c-152 -20 -321 -118 -428 -248 -84 -102 -133 -193 -190
-357 -5 -15 -19 -18 -93 -18 -62 0 -94 -5 -114 -17 -57 -33 -66 -104 -21 -155
27 -31 34 -33 108 -36 l78 -4 -3 -93 -3 -93 -69 -4 c-80 -4 -120 -27 -134 -76
-11 -41 -1 -78 31 -108 23 -22 35 -24 118 -24 l92 0 22 -67 c112 -340 387
-573 676 -573 227 0 463 141 588 351 56 96 47 163 -28 195 -59 24 -100 2 -150
-85 -59 -100 -149 -178 -256 -223 -43 -17 -74 -22 -154 -22 -87 -1 -107 3
-155 25 -119 56 -220 164 -286 306 -19 39 -34 76 -34 82 0 8 83 11 261 11
l261 0 34 34 c38 38 43 70 18 117 -28 55 -55 59 -354 59 l-270 0 0 95 0 95
274 0 c154 0 286 4 300 10 65 24 82 118 31 169 l-25 26 -266 5 -266 5 48 95
c37 75 63 111 124 172 152 153 313 185 496 97 80 -38 151 -102 208 -188 24
-38 52 -71 61 -75 61 -23 137 15 149 76 12 61 -67 182 -186 284 -78 67 -214
130 -322 149 -87 15 -111 16 -171 8z"/>
</g>
</svg>
