<?xml version="1.0" standalone="no"?>
<!DOCTYPE svg PUBLIC "-//W3C//DTD SVG 20010904//EN"
 "http://www.w3.org/TR/2001/REC-SVG-20010904/DTD/svg10.dtd">
<svg version="1.0" xmlns="http://www.w3.org/2000/svg"
 width="500.000000pt" height="500.000000pt" viewBox="0 0 500.000000 500.000000"
 preserveAspectRatio="xMidYMid meet">

<g transform="translate(0.000000,500.000000) scale(0.100000,-0.100000)"
fill="#c3b59b" stroke="none">
<path d="M2081 4526 c-51 -28 -50 -21 -51 -619 0 -589 1 -604 45 -621 9 -3
590 -6 1291 -6 l1275 0 24 25 25 24 0 571 c0 373 -4 578 -10 591 -28 51 27 49
-1322 49 -1021 -1 -1257 -3 -1277 -14z m1279 -616 l0 -470 -585 0 -585 0 0
470 0 470 585 0 585 0 0 -470z m1170 0 l0 -470 -507 0 -508 0 2 467 c2 258 3
469 3 471 0 1 227 2 505 2 l505 0 0 -470z"/>
<path d="M2376 3729 c-32 -25 -35 -75 -7 -110 l19 -24 347 0 347 0 25 29 c29
35 25 69 -13 104 -25 22 -27 22 -358 22 -322 0 -334 -1 -360 -21z"/>
<path d="M3624 3727 c-35 -30 -37 -79 -5 -110 21 -22 25 -22 365 -22 324 0
345 1 365 19 32 29 29 88 -5 115 -26 20 -38 21 -360 21 l-333 0 -27 -23z"/>
<path d="M352 3583 c-7 -3 -19 -18 -27 -33 -13 -25 -15 -224 -15 -1519 0 -924
4 -1499 10 -1515 22 -60 -130 -56 2180 -56 2279 0 2152 -3 2180 49 11 21 15
1447 4 1476 -14 34 -58 45 -189 45 l-126 0 3 38 3 37 56 5 c70 6 99 29 99 77
0 46 -28 67 -98 73 l-57 5 -3 45 c-4 70 -10 86 -37 98 -18 9 -134 12 -394 12
-355 0 -369 -1 -394 -20 -22 -17 -27 -30 -29 -78 l-3 -57 -57 -3 c-48 -2 -61
-7 -78 -29 -27 -34 -25 -69 5 -98 20 -21 34 -25 80 -25 l55 0 0 -40 0 -40
-355 0 c-344 0 -355 1 -355 19 0 25 -46 61 -77 61 -27 0 -73 -41 -73 -65 0
-11 -11 -15 -40 -15 l-40 0 0 170 c0 168 0 171 25 195 25 26 63 32 95 15 24
-13 40 -62 40 -126 0 -66 22 -94 74 -94 55 0 76 35 76 129 0 86 -19 138 -66
185 -95 93 -233 95 -328 3 -64 -61 -76 -111 -76 -314 l0 -163 -39 0 c-33 0
-40 4 -43 21 -2 12 -15 31 -30 42 -38 28 -87 14 -108 -31 l-15 -32 -155 3
-155 2 -2 740 c-2 407 -3 748 -3 758 0 9 -9 26 -20 37 -20 20 -33 20 -752 19
-403 0 -739 -3 -746 -6z m1368 -1553 l0 -1410 -625 0 -625 0 0 1410 0 1410
625 0 625 0 0 -1410z m2500 115 l0 -115 -275 0 -275 0 0 115 0 115 275 0 275
0 0 -115z m-1090 -900 l0 -625 -627 2 -628 3 -3 623 -2 622 630 0 630 0 0
-625z m1400 470 l0 -155 -625 0 -625 0 0 155 0 155 625 0 625 0 0 -155z m0
-700 l0 -395 -625 0 -625 0 0 388 c0 214 3 392 7 395 3 4 285 7 625 7 l618 0
0 -395z"/>
<path d="M1454 2176 c-17 -8 -34 -21 -38 -31 -3 -9 -6 -169 -6 -356 0 -326 1
-340 20 -359 12 -12 33 -20 55 -20 22 0 43 8 55 20 19 19 20 33 20 359 0 187
-3 347 -6 356 -4 8 -19 22 -35 30 -33 18 -26 18 -65 1z"/>
<path d="M2135 1535 c-30 -30 -32 -64 -4 -99 l20 -26 348 0 348 0 21 23 c29
31 28 72 -3 102 l-24 25 -341 0 -341 0 -24 -25z"/>
<path d="M3540 1770 c-30 -30 -27 -83 6 -109 15 -12 37 -21 49 -21 38 0 75 37
75 76 0 45 -29 74 -75 74 -22 0 -43 -8 -55 -20z"/>
<path d="M3852 1767 c-29 -31 -28 -72 3 -102 28 -29 61 -32 93 -9 35 24 45 59
27 93 -24 48 -87 57 -123 18z"/>
<path d="M4241 1764 c-28 -35 -26 -69 4 -99 49 -49 125 -20 125 48 0 50 -24
77 -70 77 -30 0 -43 -6 -59 -26z"/>
<path d="M3546 1149 c-46 -36 -32 -108 25 -128 40 -14 637 -15 673 -1 57 21
70 87 24 130 -21 19 -34 20 -359 20 -325 0 -337 -1 -363 -21z"/>
</g>
</svg>
