<?xml version="1.0" standalone="no"?>
<!DOCTYPE svg PUBLIC "-//W3C//DTD SVG 20010904//EN"
 "http://www.w3.org/TR/2001/REC-SVG-20010904/DTD/svg10.dtd">
<svg version="1.0" xmlns="http://www.w3.org/2000/svg"
 width="500.000000pt" height="500.000000pt" viewBox="0 0 500.000000 500.000000"
 preserveAspectRatio="xMidYMid meet">

<g transform="translate(0.000000,500.000000) scale(0.100000,-0.100000)"
fill="#c3b59b" stroke="none">
<path d="M2463 4966 c-60 -27 -63 -45 -63 -345 l0 -271 -27 -6 c-217 -48 -387
-203 -469 -429 -16 -43 -19 -94 -24 -344 l-5 -294 -830 -553 c-510 -340 -852
-575 -887 -608 -75 -72 -132 -188 -147 -299 -6 -43 -11 -166 -11 -273 0 -209
7 -247 51 -278 22 -15 223 -16 2447 -16 2637 0 2463 -4 2490 55 16 34 16 473
1 547 -16 78 -72 188 -125 248 -37 40 -241 181 -873 602 -454 303 -834 557
-843 566 -16 14 -18 41 -18 286 0 305 -5 339 -68 465 -81 161 -242 285 -424
325 l-28 6 0 270 c0 148 -4 280 -10 294 -18 49 -85 74 -137 52z m148 -830
c155 -36 282 -177 309 -341 5 -33 10 -151 10 -262 l0 -203 -420 0 -420 0 0
243 c1 269 6 297 69 392 31 47 110 119 158 144 74 38 199 50 294 27z m1232
-1585 c789 -526 857 -574 890 -623 49 -71 58 -124 55 -311 l-3 -157 -2285 0
-2285 0 1 183 c0 178 1 185 27 238 14 30 42 69 60 87 19 19 412 285 873 593
l839 559 487 0 487 0 854 -569z"/>
<path d="M1625 1028 c-44 -24 -55 -50 -55 -130 0 -224 108 -468 282 -633 122
-117 250 -190 413 -237 69 -20 102 -23 240 -22 145 0 168 3 248 27 393 121
652 440 682 842 6 70 4 84 -14 113 -37 58 -103 68 -152 24 -28 -25 -32 -35
-40 -114 -12 -116 -24 -169 -61 -252 -68 -156 -191 -286 -343 -361 -113 -56
-193 -75 -321 -75 -389 0 -689 279 -729 680 -3 36 -11 78 -17 93 -18 47 -87
71 -133 45z"/>
</g>
</svg>
