<?xml version="1.0" standalone="no"?>
<!DOCTYPE svg PUBLIC "-//W3C//DTD SVG 20010904//EN"
 "http://www.w3.org/TR/2001/REC-SVG-20010904/DTD/svg10.dtd">
<svg version="1.0" xmlns="http://www.w3.org/2000/svg"
 width="500.000000pt" height="500.000000pt" viewBox="0 0 500.000000 500.000000"
 preserveAspectRatio="xMidYMid meet">

<g transform="translate(0.000000,500.000000) scale(0.100000,-0.100000)"
fill="#c3b59b" stroke="none">
<path d="M3482 4988 c-13 -7 -34 -33 -48 -59 -38 -76 -104 -245 -104 -268 0
-11 25 -96 55 -189 59 -181 77 -211 133 -215 l32 -2 0 -702 0 -703 -275 0
c-191 0 -282 -4 -300 -12 -51 -23 -55 -47 -55 -302 0 -129 4 -246 10 -260 5
-14 33 -40 62 -59 67 -43 96 -75 108 -117 20 -69 -25 -141 -123 -199 -20 -13
-42 -31 -47 -41 -6 -12 -10 -254 -10 -652 0 -529 3 -644 15 -697 46 -193 219
-367 438 -439 122 -41 229 -56 337 -48 274 20 510 157 615 357 71 136 68 106
72 801 4 693 5 681 -58 716 -47 25 -98 71 -115 103 -34 66 -6 149 66 196 111
71 110 67 110 338 0 232 -6 267 -51 299 -20 14 -61 16 -306 16 l-283 0 2 702
c3 685 3 701 22 704 47 7 65 15 79 38 20 31 117 339 117 373 0 14 -11 51 -24
82 -14 31 -42 99 -64 151 l-40 95 -173 2 c-113 1 -182 -2 -197 -9z m260 -263
l27 -66 -32 -97 -32 -97 -44 -3 c-24 -2 -48 1 -52 5 -5 5 -22 50 -37 99 l-29
90 26 67 26 67 60 0 60 0 27 -65z m438 -2209 l0 -135 -59 -56 c-71 -67 -111
-149 -118 -239 -9 -109 53 -241 142 -306 l35 -25 -3 -610 -2 -610 -29 -53
c-105 -188 -377 -291 -631 -237 -149 32 -289 126 -350 237 l-30 53 -2 610 -3
610 39 27 c80 55 141 176 141 281 -1 110 -51 211 -141 282 l-38 30 -1 138 0
137 525 0 525 0 0 -134z"/>
<path d="M3602 1714 c-52 -36 -52 -35 -52 -573 0 -287 4 -510 9 -524 33 -85
148 -91 190 -10 8 15 11 178 11 538 l0 517 -34 34 c-38 38 -85 45 -124 18z"/>
<path d="M848 4921 c-86 -58 -236 -209 -295 -297 -117 -177 -182 -359 -204
-569 -22 -218 35 -411 186 -625 92 -130 285 -315 437 -419 37 -25 48 -38 48
-59 0 -15 -22 -344 -50 -732 -106 -1496 -107 -1512 -99 -1585 19 -157 81 -280
203 -400 399 -395 1078 -185 1182 365 15 77 14 106 -25 653 -23 315 -59 831
-82 1147 l-41 575 28 20 c201 146 350 284 447 415 68 93 138 224 165 310 85
267 20 620 -165 895 -99 148 -303 335 -380 351 -19 4 -42 0 -61 -10 -61 -31
-62 -39 -62 -428 l0 -352 -122 -183 -123 -183 -269 3 -270 2 -122 180 -123
180 0 355 c-1 337 -2 357 -21 388 -20 32 -54 52 -90 52 -10 0 -51 -22 -92 -49z
m151 -1036 c84 -127 164 -241 177 -255 l24 -25 364 0 c350 0 365 1 386 20 13
11 94 127 181 258 l159 238 0 260 c0 142 2 259 5 259 8 0 65 -66 102 -118 58
-81 124 -221 150 -320 21 -77 26 -122 27 -222 1 -152 -18 -222 -95 -352 -95
-159 -249 -314 -452 -455 -60 -42 -114 -86 -120 -100 -11 -25 -8 -70 105
-1656 58 -816 58 -791 -9 -920 -84 -159 -251 -257 -440 -257 -231 0 -426 152
-479 375 -16 68 -15 85 25 645 89 1247 121 1709 121 1759 0 47 -4 57 -33 85
-18 17 -72 57 -120 90 -214 144 -407 365 -485 551 -94 228 -13 591 188 833
l55 67 5 -265 5 -266 154 -229z"/>
<path d="M1517 899 c-198 -48 -266 -283 -125 -429 69 -70 193 -93 288 -52 50
21 115 87 136 138 21 51 18 146 -7 199 -23 50 -85 110 -133 130 -45 19 -115
25 -159 14z m96 -220 c33 -46 -19 -97 -68 -65 -29 19 -32 42 -8 68 22 24 58
23 76 -3z"/>
</g>
</svg>
