<?xml version="1.0" standalone="no"?>
<!DOCTYPE svg PUBLIC "-//W3C//DTD SVG 20010904//EN"
 "http://www.w3.org/TR/2001/REC-SVG-20010904/DTD/svg10.dtd">
<svg version="1.0" xmlns="http://www.w3.org/2000/svg"
 width="500.000000pt" height="500.000000pt" viewBox="0 0 500.000000 500.000000"
 preserveAspectRatio="xMidYMid meet">

<g transform="translate(0.000000,500.000000) scale(0.100000,-0.100000)"
fill="#c3b59b" stroke="none">
<path d="M2305 4988 c-214 -32 -326 -64 -460 -130 -138 -68 -244 -146 -360
-262 -224 -225 -361 -496 -417 -820 -17 -103 -19 -148 -15 -301 3 -99 12 -205
19 -235 l14 -55 -96 -95 c-143 -142 -224 -284 -275 -484 -45 -179 -42 -371 11
-553 83 -286 290 -520 561 -633 156 -65 365 -79 537 -35 108 27 248 96 317
155 40 35 44 42 44 85 0 40 -5 51 -33 76 -47 42 -82 39 -163 -16 -408 -273
-934 -52 -1070 450 -30 108 -32 307 -5 415 23 96 102 260 156 325 44 53 137
135 182 162 15 9 35 31 44 49 17 30 17 37 1 101 -43 179 -51 395 -22 563 86
495 434 891 879 1001 107 26 289 35 397 20 458 -68 836 -428 960 -918 16 -63
29 -123 29 -133 0 -35 39 -68 108 -90 330 -107 590 -387 695 -750 172 -593
-148 -1239 -698 -1413 -274 -86 -566 -44 -815 118 -98 63 -132 69 -179 29 -38
-32 -49 -80 -27 -122 44 -84 339 -227 546 -263 96 -16 284 -16 380 0 518 90
923 513 1026 1072 24 127 24 370 0 499 -34 187 -104 361 -213 530 -68 104
-249 288 -348 352 -79 51 -192 109 -245 127 -34 11 -36 13 -62 116 -135 527
-565 949 -1059 1039 -207 37 -241 40 -344 24z"/>
<path d="M2334 3879 l-29 -30 -3 -650 -2 -650 -50 58 c-107 125 -226 202 -349
224 -61 10 -79 10 -138 -5 -126 -31 -240 -120 -250 -194 -5 -37 -2 -45 30 -77
49 -49 88 -48 155 5 94 75 145 85 230 45 98 -46 234 -198 326 -368 l46 -84 0
-867 0 -866 -1097 0 c-1078 0 -1099 0 -1131 -20 -18 -11 -40 -35 -49 -54 -15
-32 -15 -36 4 -68 10 -18 34 -43 53 -55 l33 -23 2389 0 c2384 0 2389 0 2429
20 52 27 77 76 60 118 -7 17 -24 41 -38 54 l-25 23 -1209 3 -1209 2 0 698 0
697 24 106 c90 394 260 675 473 781 74 37 91 41 175 46 75 4 110 0 176 -17
111 -29 137 -27 173 8 23 23 29 38 29 71 0 75 -62 112 -230 139 -309 50 -597
-102 -777 -409 l-38 -64 -5 693 -5 693 -28 24 c-42 36 -104 34 -143 -7z"/>
</g>
</svg>
