<?xml version="1.0" standalone="no"?>
<!DOCTYPE svg PUBLIC "-//W3C//DTD SVG 20010904//EN"
 "http://www.w3.org/TR/2001/REC-SVG-20010904/DTD/svg10.dtd">
<svg version="1.0" xmlns="http://www.w3.org/2000/svg"
 width="500.000000pt" height="500.000000pt" viewBox="0 0 500.000000 500.000000"
 preserveAspectRatio="xMidYMid meet">

<g transform="translate(0.000000,500.000000) scale(0.100000,-0.100000)"
fill="#c3b59b" stroke="none">
<path d="M1750 4700 c-14 -4 -137 -53 -275 -110 -137 -56 -344 -141 -460 -188
-208 -84 -511 -207 -778 -316 -76 -31 -155 -65 -176 -75 -59 -31 -77 -91 -43
-144 10 -15 144 -151 296 -301 153 -151 277 -279 275 -285 -3 -7 -134 -185
-293 -397 -310 -414 -312 -418 -272 -479 12 -18 257 -145 866 -450 915 -458
900 -451 954 -402 13 12 142 180 286 372 144 193 265 351 269 353 5 1 129
-158 276 -355 147 -197 276 -366 287 -375 49 -43 49 -43 941 403 567 283 851
430 870 450 29 31 34 67 15 102 -6 12 -139 192 -296 401 l-284 379 290 291
c160 160 296 304 301 319 12 30 -3 82 -30 103 -15 13 -129 61 -494 209 -519
211 -727 295 -885 360 -363 148 -358 146 -387 139 -19 -5 -125 -105 -314 -294
l-286 -288 -279 280 c-232 233 -324 314 -346 307 -2 0 -14 -4 -28 -9z m1645
-361 c149 -61 324 -132 390 -159 66 -27 257 -105 424 -174 l304 -124 -233
-231 c-220 -218 -235 -231 -259 -222 -14 5 -93 37 -176 71 -82 34 -253 104
-380 155 -126 51 -286 117 -355 145 -69 28 -153 62 -187 76 -34 13 -115 45
-180 72 -65 27 -127 52 -137 56 -17 6 17 44 214 241 l234 234 35 -15 c20 -9
158 -65 306 -125z m-1411 -96 c124 -125 222 -230 218 -234 -4 -3 -99 -43 -212
-89 -269 -109 -710 -289 -985 -402 -121 -49 -227 -92 -235 -94 -10 -3 -99 79
-245 225 -126 127 -227 232 -225 234 5 4 146 63 415 173 505 205 683 278 865
353 80 33 153 60 162 61 9 0 118 -102 242 -227z m534 -427 c169 -70 652 -267
702 -286 25 -9 88 -35 140 -57 52 -22 172 -70 265 -108 94 -37 173 -71 178
-75 4 -3 -309 -165 -696 -359 l-704 -353 -707 354 -707 353 138 57 c76 31 217
89 313 128 96 39 234 95 305 125 72 29 216 87 320 130 105 42 219 90 255 105
36 15 71 28 78 29 7 1 61 -19 120 -43z m-1016 -1022 c403 -201 733 -369 733
-374 0 -4 -74 -106 -165 -226 -91 -121 -200 -267 -243 -326 -78 -106 -79 -107
-106 -95 -20 9 -1428 712 -1450 724 -3 2 491 663 496 663 2 0 333 -165 735
-366z m2779 45 c132 -176 242 -326 245 -332 2 -7 -289 -159 -732 -380 -677
-337 -738 -366 -749 -350 -7 10 -119 160 -249 333 l-236 315 733 367 c402 202
735 367 739 367 4 1 116 -143 249 -320z"/>
<path d="M664 1906 l-34 -34 0 -416 c0 -355 2 -421 15 -447 14 -25 135 -89
888 -465 l872 -437 871 436 c819 410 872 438 888 470 14 31 16 84 16 431 0
426 -2 445 -51 480 -42 29 -105 17 -141 -28 -16 -19 -18 -56 -18 -396 l0 -375
-730 -365 -730 -365 0 723 c0 777 0 770 -51 806 -42 29 -105 17 -141 -28 -16
-19 -18 -75 -18 -758 0 -406 -3 -738 -7 -738 -5 0 -333 163 -730 361 l-723
362 0 374 0 375 -34 34 c-26 26 -42 34 -71 34 -29 0 -45 -8 -71 -34z"/>
</g>
</svg>
